<?xml version="1.0" encoding="UTF-8"?>
<!DOCTYPE svg PUBLIC "-//W3C//DTD SVG 1.1//EN" "http://www.w3.org/Graphics/SVG/1.1/DTD/svg11.dtd">
<svg xmlns="http://www.w3.org/2000/svg" version="1.1" width="3333px" height="3333px" style="shape-rendering:geometricPrecision; text-rendering:geometricPrecision; image-rendering:optimizeQuality; fill-rule:evenodd; clip-rule:evenodd" xmlns:xlink="http://www.w3.org/1999/xlink">
<g><path style="opacity:0.99" fill="#fefffe" d="M 1859.5,252.5 C 1879.36,254.202 1893.2,264.202 1901,282.5C 1905.4,293.111 1908.4,304.111 1910,315.5C 1912.37,333.084 1913.54,350.75 1913.5,368.5C 1911.32,419.882 1908.32,471.215 1904.5,522.5C 1905.55,551.873 1904.72,581.207 1902,610.5C 1900.34,628.814 1894.34,645.481 1884,660.5C 1861.55,682.095 1839.55,681.762 1818,659.5C 1811.36,650.913 1807.02,641.246 1805,630.5C 1802.97,612.059 1801.81,593.559 1801.5,575C 1802.83,528.621 1804.83,482.288 1807.5,436C 1805.84,401.516 1805.34,367.016 1806,332.5C 1806.81,316.604 1810.14,301.271 1816,286.5C 1824.82,267.837 1839.32,256.503 1859.5,252.5 Z"/></g>
<g><path style="opacity:0.989" fill="#fefffe" d="M 1042.5,289.5 C 1056.74,288.869 1068.57,293.869 1078,304.5C 1082.17,310.166 1085.84,316.166 1089,322.5C 1109.09,384.759 1130.75,446.426 1154,507.5C 1175.6,557.698 1199.6,606.698 1226,654.5C 1237.52,677.726 1245.85,702.059 1251,727.5C 1253.53,742.343 1252.86,757.009 1249,771.5C 1241.19,789.01 1227.69,799.176 1208.5,802C 1204.5,802.811 1200.5,803.144 1196.5,803C 1187.44,796.951 1179.28,789.784 1172,781.5C 1145.54,748.277 1123.87,711.944 1107,672.5C 1086.73,626.952 1068.39,580.619 1052,533.5C 1034.06,480.35 1015.73,427.35 997,374.5C 989.944,343.667 998.444,318.167 1022.5,298C 1028.73,293.876 1035.4,291.043 1042.5,289.5 Z"/></g>
<g><path style="opacity:0.99" fill="#fefffe" d="M 2769.5,560.5 C 2798.2,558.112 2816.7,570.779 2825,598.5C 2831.19,620.967 2829.19,642.634 2819,663.5C 2815.25,669.258 2810.75,674.425 2805.5,679C 2761.28,700.107 2717.28,721.774 2673.5,744C 2607.32,779.502 2547.32,823.502 2493.5,876C 2475.98,896.222 2458.81,916.722 2442,937.5C 2432.38,948.13 2420.88,955.964 2407.5,961C 2395.68,963.641 2384.68,961.641 2374.5,955C 2366.01,949.823 2360.51,942.323 2358,932.5C 2350.46,909.079 2350.79,885.746 2359,862.5C 2365.95,845.269 2374.95,829.269 2386,814.5C 2406.46,789.035 2429.3,765.869 2454.5,745C 2491.58,714.959 2530.58,687.625 2571.5,663C 2635.4,624.88 2701.4,590.714 2769.5,560.5 Z"/></g>
<g><path style="opacity:0.991" fill="#fefffe" d="M 1840.5,999.5 C 1855.76,998.543 1870.76,1000.04 1885.5,1004C 1914.43,1012.53 1943.09,1021.86 1971.5,1032C 2044.74,1043.13 2109.08,1072.8 2164.5,1121C 2201.43,1154.8 2234.26,1191.97 2263,1232.5C 2353.48,1357.95 2398.31,1498.45 2397.5,1654C 2394.73,1822.58 2351.23,1979.75 2267,2125.5C 2235.9,2169.28 2200.4,2209.45 2160.5,2246C 2046.06,2350.57 1912.73,2420.57 1760.5,2456C 1626.16,2485.47 1494.16,2477.47 1364.5,2432C 1308.63,2411.07 1256.63,2383.4 1208.5,2349C 1184.12,2329.62 1159.45,2310.62 1134.5,2292C 1095.33,2266.58 1056.33,2240.92 1017.5,2215C 977.809,2186.98 942.975,2153.81 913,2115.5C 875.803,2061.94 853.136,2002.6 845,1937.5C 837.805,1878.85 837.805,1820.18 845,1761.5C 858.451,1659.91 879.451,1559.91 908,1461.5C 991.049,1200.82 1168.22,1050.65 1439.5,1011C 1476.83,1005.68 1514.33,1002.18 1552,1000.5C 1602.18,1001.79 1652.35,1003.62 1702.5,1006C 1726.96,1007.89 1750.63,1013.22 1773.5,1022C 1814.74,1041.3 1829.24,1073.13 1817,1117.5C 1812.26,1131.24 1803.09,1140.74 1789.5,1146C 1773.88,1151.09 1757.88,1152.76 1741.5,1151C 1659.06,1136.95 1576.06,1131.62 1492.5,1135C 1343.96,1146.99 1211.96,1199.32 1096.5,1292C 1088.53,1298.25 1081.03,1305.08 1074,1312.5C 1023.01,1374.17 989.34,1444.5 973,1523.5C 960.467,1585.36 954.301,1647.86 954.5,1711C 956.17,1791.06 961.337,1870.89 970,1950.5C 982.694,1988.23 1001.36,2022.57 1026,2053.5C 1064.58,2100.5 1109.75,2139.67 1161.5,2171C 1257,2229.06 1359.66,2269.06 1469.5,2291C 1548.18,2309.33 1627.84,2320.67 1708.5,2325C 1782.54,2329.12 1855.2,2321.12 1926.5,2301C 2035.86,2267.28 2118.7,2200.78 2175,2101.5C 2213.63,2033.28 2240.63,1960.61 2256,1883.5C 2276.16,1779.07 2283.5,1673.73 2278,1567.5C 2257.53,1410.09 2193.69,1273.59 2086.5,1158C 2059.57,1141.35 2030.9,1128.35 2000.5,1119C 1951.92,1105.69 1903.25,1092.69 1854.5,1080C 1825.28,1073.42 1813.11,1055.25 1818,1025.5C 1820.23,1011.92 1827.73,1003.26 1840.5,999.5 Z"/></g>
<g><path style="opacity:0.99" fill="#fefffe" d="M 445.5,1040.5 C 453.988,1039.99 462.321,1040.82 470.5,1043C 517.616,1062.72 564.616,1082.72 611.5,1103C 653.805,1121.8 693.138,1145.13 729.5,1173C 746.344,1186.84 759.844,1203.34 770,1222.5C 780.834,1248.4 778.167,1272.73 762,1295.5C 749.336,1310.83 733.503,1315.67 714.5,1310C 662.245,1281.4 610.245,1252.4 558.5,1223C 518.713,1201.63 477.379,1183.96 434.5,1170C 419.819,1161.97 410.319,1149.81 406,1133.5C 398.627,1105.76 402.96,1080.1 419,1056.5C 426.145,1048.19 434.979,1042.85 445.5,1040.5 Z"/></g>
<g><path style="opacity:0.983" fill="#fefffe" d="M 1680.5,1364.5 C 1697.04,1362.29 1710.54,1367.62 1721,1380.5C 1741.67,1411.83 1741.67,1443.17 1721,1474.5C 1705.03,1492.04 1686.53,1495.2 1665.5,1484C 1651.51,1472.52 1643.34,1457.69 1641,1439.5C 1638.07,1416.89 1643.4,1396.56 1657,1378.5C 1663.6,1371.62 1671.43,1366.96 1680.5,1364.5 Z"/></g>
<g><path style="opacity:0.991" fill="#fefffe" d="M 2684.5,1411.5 C 2705.89,1410.97 2727.23,1411.8 2748.5,1414C 2782.92,1419.15 2817.25,1424.82 2851.5,1431C 2901.58,1427.75 2927.58,1451.09 2929.5,1501C 2930.11,1525.23 2921.44,1545.23 2903.5,1561C 2895.11,1566.24 2885.94,1569.07 2876,1569.5C 2859.2,1566.81 2842.36,1564.31 2825.5,1562C 2781.1,1557.18 2736.77,1551.84 2692.5,1546C 2681.48,1544.13 2670.48,1542.13 2659.5,1540C 2640.8,1534.3 2628.3,1522.13 2622,1503.5C 2608.39,1448.99 2629.22,1418.32 2684.5,1411.5 Z"/></g>
<g><path style="opacity:0.983" fill="#fefffe" d="M 1373.5,1466.5 C 1397.41,1463.87 1414.24,1473.54 1424,1495.5C 1436.17,1525.11 1432.84,1552.77 1414,1578.5C 1397.48,1594.4 1379.31,1596.56 1359.5,1585C 1343.46,1570.08 1335.13,1551.58 1334.5,1529.5C 1334.85,1507.6 1342.85,1489.1 1358.5,1474C 1363.31,1470.93 1368.31,1468.43 1373.5,1466.5 Z"/></g>
<g><path style="opacity:0.991" fill="#fefffe" d="M 1843.5,1479.5 C 1858.92,1479.79 1870.75,1486.46 1879,1499.5C 1893.5,1524.65 1895.16,1550.65 1884,1577.5C 1874.94,1597.31 1863.6,1615.64 1850,1632.5C 1825.72,1659.57 1801.55,1686.74 1777.5,1714C 1740.08,1749.68 1696.41,1775.01 1646.5,1790C 1619.29,1797.35 1591.63,1800.02 1563.5,1798C 1513.65,1795.7 1463.98,1791.37 1414.5,1785C 1383.12,1780.87 1352.78,1772.87 1323.5,1761C 1307.74,1754.23 1293.91,1744.73 1282,1732.5C 1265.42,1709.98 1262.42,1685.65 1273,1659.5C 1285.28,1630.95 1306.44,1621.12 1336.5,1630C 1377.6,1637.15 1418.6,1644.82 1459.5,1653C 1512.02,1663.9 1565.02,1667.56 1618.5,1664C 1640.75,1661.58 1661.41,1654.58 1680.5,1643C 1705.43,1626.75 1727.26,1606.91 1746,1583.5C 1766,1557.5 1786,1531.5 1806,1505.5C 1811.86,1499.3 1818.03,1493.47 1824.5,1488C 1830.45,1484.02 1836.78,1481.19 1843.5,1479.5 Z"/></g>
<g><path style="opacity:0.989" fill="#fefffe" d="M 2566.5,2010.5 C 2586.39,2011.41 2604.72,2017.24 2621.5,2028C 2647.87,2044.36 2672.54,2063.03 2695.5,2084C 2722.8,2108.97 2749.8,2134.3 2776.5,2160C 2790.04,2171.88 2803.87,2183.38 2818,2194.5C 2830.46,2210.31 2835.79,2228.31 2834,2248.5C 2832.82,2270.75 2824.32,2289.59 2808.5,2305C 2790.17,2316.57 2772.17,2315.91 2754.5,2303C 2705.77,2258.49 2656.1,2215.15 2605.5,2173C 2578.47,2156.97 2556.31,2135.81 2539,2109.5C 2526.13,2089.15 2523.13,2067.48 2530,2044.5C 2535.19,2031.97 2543.36,2021.81 2554.5,2014C 2558.54,2012.51 2562.54,2011.34 2566.5,2010.5 Z"/></g>
<g><path style="opacity:0.99" fill="#fefffe" d="M 805.5,2126.5 C 823.541,2125.44 837.374,2132.44 847,2147.5C 859.802,2170.94 861.802,2195.27 853,2220.5C 850.839,2225.49 848.172,2230.16 845,2234.5C 816.545,2260.15 785.378,2281.98 751.5,2300C 708.696,2323.07 665.363,2345.07 621.5,2366C 582.421,2388.88 542.421,2410.21 501.5,2430C 484.59,2437.58 466.923,2442.41 448.5,2444.5C 442.143,2444.33 436.143,2442.83 430.5,2440C 408.835,2422.37 399.668,2399.53 403,2371.5C 404.964,2352.4 413.131,2336.57 427.5,2324C 488.416,2293.88 549.082,2263.21 609.5,2232C 661.682,2203.13 713.349,2173.47 764.5,2143C 777.629,2135.76 791.296,2130.26 805.5,2126.5 Z"/></g>
<g><path style="opacity:0.99" fill="#fefffe" d="M 2134.5,2510.5 C 2150.47,2508.32 2163.63,2513.32 2174,2525.5C 2181.67,2535.49 2188.33,2546.16 2194,2557.5C 2203.51,2580.86 2213.84,2603.86 2225,2626.5C 2244.16,2662.82 2263.83,2698.82 2284,2734.5C 2293.74,2757.59 2292.08,2779.92 2279,2801.5C 2268.72,2819.45 2253.88,2831.95 2234.5,2839C 2215.3,2843.98 2199.47,2838.81 2187,2823.5C 2180.6,2810.37 2173.94,2797.37 2167,2784.5C 2143.89,2747.3 2122.56,2708.96 2103,2669.5C 2094.26,2650.62 2087.93,2630.95 2084,2610.5C 2076.79,2575.15 2086.29,2545.31 2112.5,2521C 2119.54,2516.64 2126.87,2513.14 2134.5,2510.5 Z"/></g>
<g><path style="opacity:0.99" fill="#fefffe" d="M 1424.5,2601.5 C 1465.65,2602.15 1486.65,2622.98 1487.5,2664C 1485.96,2688.05 1481.46,2711.55 1474,2734.5C 1437.92,2835.74 1405.25,2938.08 1376,3041.5C 1371.86,3052.96 1365.36,3062.79 1356.5,3071C 1338.55,3082.4 1321.22,3081.4 1304.5,3068C 1286.51,3051.34 1278.18,3030.67 1279.5,3006C 1280.04,2983.6 1283.87,2961.76 1291,2940.5C 1302.8,2906.09 1314.8,2871.76 1327,2837.5C 1329.8,2827.95 1332.14,2818.28 1334,2808.5C 1338.26,2798.73 1341.92,2788.73 1345,2778.5C 1352.16,2752.88 1359.16,2727.21 1366,2701.5C 1373.68,2671.47 1386.68,2644.14 1405,2619.5C 1411.1,2612.9 1417.6,2606.9 1424.5,2601.5 Z"/></g>
</svg>
